<svg width="1920" height="1080" viewBox="0 0 1920 1080" fill="none" xmlns="http://www.w3.org/2000/svg">
  <defs>
    <linearGradient id="bg" x1="0" y1="0" x2="1920" y2="1080" gradientUnits="userSpaceOnUse">
      <stop stop-color="#11111B"/>
      <stop offset="0.45" stop-color="#1E1E2E"/>
      <stop offset="0.72" stop-color="#181825"/>
      <stop offset="1" stop-color="#11111B"/>
    </linearGradient>
    <radialGradient id="sun" cx="0" cy="0" r="1" gradientUnits="userSpaceOnUse" gradientTransform="translate(1260 360) rotate(90) scale(360 420)">
      <stop stop-color="#FAB387" stop-opacity="0.88"/>
      <stop offset="0.5" stop-color="#F5C2E7" stop-opacity="0.38"/>
      <stop offset="1" stop-color="#F5C2E7" stop-opacity="0"/>
    </radialGradient>
    <radialGradient id="violet" cx="0" cy="0" r="1" gradientUnits="userSpaceOnUse" gradientTransform="translate(580 380) rotate(90) scale(460 520)">
      <stop stop-color="#CBA6F7" stop-opacity="0.55"/>
      <stop offset="1" stop-color="#CBA6F7" stop-opacity="0"/>
    </radialGradient>
    <radialGradient id="cyan" cx="0" cy="0" r="1" gradientUnits="userSpaceOnUse" gradientTransform="translate(1120 850) rotate(90) scale(340 540)">
      <stop stop-color="#89DCEB" stop-opacity="0.24"/>
      <stop offset="1" stop-color="#89DCEB" stop-opacity="0"/>
    </radialGradient>
    <filter id="blur" x="-100" y="-100" width="2120" height="1280" filterUnits="userSpaceOnUse">
      <feGaussianBlur stdDeviation="56"/>
    </filter>
  </defs>
  <rect width="1920" height="1080" fill="url(#bg)"/>
  <g filter="url(#blur)">
    <circle cx="1260" cy="360" r="420" fill="url(#sun)"/>
    <circle cx="580" cy="380" r="440" fill="url(#violet)"/>
    <circle cx="1120" cy="850" r="360" fill="url(#cyan)"/>
  </g>
  <g opacity="0.25">
    <path d="M0 690C280 640 430 790 700 744C920 708 1100 560 1360 560C1600 560 1750 670 1920 650V1080H0V690Z" fill="#11111B"/>
    <path d="M0 760C250 730 470 880 720 848C1010 808 1130 640 1400 650C1620 658 1760 748 1920 738V1080H0V760Z" fill="#1E1E2E"/>
  </g>
  <g opacity="0.16">
    <circle cx="330" cy="180" r="2.5" fill="white"/>
    <circle cx="420" cy="240" r="1.8" fill="white"/>
    <circle cx="1560" cy="220" r="2.6" fill="white"/>
    <circle cx="1640" cy="350" r="1.8" fill="white"/>
    <circle cx="1460" cy="140" r="2.4" fill="white"/>
  </g>
</svg>
